<?xml version="1.0" encoding="UTF-8"?><svg id="Layer_1" xmlns="http://www.w3.org/2000/svg" xmlns:xlink="http://www.w3.org/1999/xlink" viewBox="0 0 109 109"><defs><linearGradient id="Namnlös_övertoning_3" x1="8.18" y1="54.5" x2="100.82" y2="54.5" gradientUnits="userSpaceOnUse"><stop offset=".1" stop-color="#d15b9b" stop-opacity=".1"/><stop offset=".35" stop-color="#d15b9b" stop-opacity=".68"/><stop offset="1" stop-color="#d15b9b" stop-opacity=".02"/></linearGradient></defs><circle cx="54.5" cy="54.5" r="45.71" fill="none" stroke="url(#Namnlös_övertoning_3)" stroke-linecap="round" stroke-linejoin="round" stroke-width="1.21"/><path d="M72.42,60.34v1.86c0,1.11-.91,2.01-2.01,2.01h-31.96c-1.11,0-2.01-.91-2.01-2.01v-23.66c0-1.11.91-2.01,2.01-2.01h15.05" fill="none" stroke="#626c87" stroke-miterlimit="10" stroke-width="2.02"/><path d="M78.04,74.95l-6.19-5.75h-34.85l-6.19,5.75s-.73,1.97,1.46,1.97h44.32c2.18,0,1.46-1.97,1.46-1.97Z" fill="none" stroke="#626c87" stroke-miterlimit="10" stroke-width="2.02"/><path d="M72.29,52.51v2.44c0,1.56-1.28,2.84-2.84,2.84h-9.73c-1.56,0-2.84-1.28-2.84-2.84v-23.6c0-1.56,1.28-2.84,2.84-2.84h9.73c1.56,0,2.84,1.28,2.84,2.84" fill="none" stroke="#626c87" stroke-miterlimit="10" stroke-width="2.02"/><circle cx="64.21" cy="53.03" r="1.22" fill="#626c87"/><circle cx="72.08" cy="41.62" r="7.61" fill="none" stroke="#d35b9c" stroke-linecap="round" stroke-miterlimit="10" stroke-width="2.18"/><path d="M68.68,42.12l.72-.72,1.79,1.79,3.94-3.94.72.72-4.66,4.66-2.51-2.51Z" fill="#d35b9c"/></svg>