<?xml version="1.0" encoding="UTF-8"?><svg id="Layer_1" xmlns="http://www.w3.org/2000/svg" xmlns:xlink="http://www.w3.org/1999/xlink" viewBox="0 0 109 109"><defs><linearGradient id="Namnlös_övertoning_3" x1="8.18" y1="54.5" x2="100.82" y2="54.5" gradientUnits="userSpaceOnUse"><stop offset=".1" stop-color="#d15b9b" stop-opacity=".1"/><stop offset=".35" stop-color="#d15b9b" stop-opacity=".68"/><stop offset="1" stop-color="#d15b9b" stop-opacity=".02"/></linearGradient></defs><circle cx="54.5" cy="54.5" r="45.71" fill="none" stroke="url(#Namnlös_övertoning_3)" stroke-linecap="round" stroke-linejoin="round" stroke-width="1.21"/><path d="M55.5,76.68c-3.59,0-7.14-.88-10.39-2.61-5.23-2.78-9.05-7.44-10.78-13.1-1.73-5.67-1.14-11.66,1.64-16.89,2.78-5.23,7.44-9.05,13.1-10.78,5.63-1.72,11.6-1.15,16.8,1.59.75.4,1.04,1.33.64,2.08-.4.75-1.33,1.04-2.08.64-4.48-2.36-9.62-2.85-14.47-1.37-4.88,1.49-8.88,4.78-11.28,9.28s-2.9,9.66-1.41,14.54c3.07,10.07,13.76,15.76,23.83,12.69,3.77-1.15,7.03-3.39,9.45-6.48,2.36-3.02,3.76-6.63,4.02-10.44.06-.85.79-1.48,1.64-1.43,0,0,0,0,0,0,.85.06,1.49.8,1.43,1.64-.31,4.43-1.93,8.62-4.67,12.12-2.81,3.59-6.6,6.19-10.98,7.53-2.1.64-4.29.97-6.49.97h0Z" fill="#626c87"/><path d="M65.99,58.96h-11.39c-.85,0-1.54-.69-1.54-1.54v-13.22c0-.85.69-1.54,1.54-1.54s1.54.69,1.54,1.54v11.68h9.85c.85,0,1.54.69,1.54,1.54s-.69,1.54-1.54,1.54h0Z" fill="#d35b9c"/></svg>