<?xml version="1.0" encoding="UTF-8"?><svg id="Layer_1" xmlns="http://www.w3.org/2000/svg" xmlns:xlink="http://www.w3.org/1999/xlink" viewBox="0 0 109 109"><defs><linearGradient id="Namnlös_övertoning_3" x1="8.18" y1="54.5" x2="100.82" y2="54.5" gradientUnits="userSpaceOnUse"><stop offset=".1" stop-color="#d15b9b" stop-opacity=".1"/><stop offset=".35" stop-color="#d15b9b" stop-opacity=".68"/><stop offset="1" stop-color="#d15b9b" stop-opacity=".02"/></linearGradient></defs><path d="M35.05,53.87s.19-5.05,5.57-6.2" fill="none" stroke="#d55ba0" stroke-miterlimit="10" stroke-width=".63"/><path d="M43.28,47.68s3.2.15,5.22,4.39" fill="none" stroke="#d55ba0" stroke-miterlimit="10" stroke-width=".63"/><path d="M48.83,53.78s.19,4.69-.42,6.86" fill="none" stroke="#d55ba0" stroke-miterlimit="10" stroke-width=".63"/><path d="M46.75,60.09s.8-3.06.19-7.02" fill="none" stroke="#d55ba0" stroke-miterlimit="10" stroke-width=".63"/><path d="M45.73,50.88c-.02-.06-3.97-4.02-8.03.51" fill="none" stroke="#d55ba0" stroke-miterlimit="10" stroke-width=".63"/><path d="M36.92,52.87s-.21.62-.25,1.4.25,3.76-.44,4.98c-.25.44-.59.71-.59.71" fill="none" stroke="#d55ba0" stroke-miterlimit="10" stroke-width=".63"/><path d="M35.05,55.8s-.02,1.73-.34,2.46c-.13.28-.36.51-.36.51" fill="none" stroke="#d55ba0" stroke-miterlimit="10" stroke-width=".63"/><path d="M36.76,61.35s.36-.59.53-.72c.3-.23.5-.55.63-.78" fill="none" stroke="#d55ba0" stroke-miterlimit="10" stroke-width=".63"/><path d="M38.25,62.3s.15-.23.48-.51,1.3-1.58,1.43-4.52" fill="none" stroke="#d55ba0" stroke-miterlimit="10" stroke-width=".63"/><path d="M38.36,57.44c0-.06.04-2.5.11-3.58s.8-1.91,2.21-2.69" fill="none" stroke="#d55ba0" stroke-miterlimit="10" stroke-width=".63"/><path d="M45.25,58.54c.21-2.27.25-3.18.1-4.61-.24-2.23-2.94-2.96-2.94-2.96" fill="none" stroke="#d55ba0" stroke-miterlimit="10" stroke-width=".63"/><path d="M40.16,54.58s.06-1.87,1.72-1.87,1.75,1.39,1.77,1.54.06,1.81.06,1.81" fill="none" stroke="#d55ba0" stroke-miterlimit="10" stroke-width=".63"/><path d="M41.87,54.37s.36,3.64-.57,6.2c0,0-.5,1.24-1.35,2.35" fill="none" stroke="#d55ba0" stroke-miterlimit="10" stroke-width=".63"/><path d="M43.57,57.74s-.04,2.71-1.64,5.43" fill="none" stroke="#d55ba0" stroke-miterlimit="10" stroke-width=".63"/><path d="M44.73,61.08s-.15.92-.71,1.96" fill="none" stroke="#d55ba0" stroke-miterlimit="10" stroke-width=".63"/><path d="M46.32,61.63s-.1.63-.29,1.01" fill="none" stroke="#d55ba0" stroke-miterlimit="10" stroke-width=".63"/><path d="M50.34,56.56s1.72-5.57-3.58-9.38" fill="none" stroke="#d55ba0" stroke-miterlimit="10" stroke-width=".63"/><path d="M44.43,46.15s-4.84-1.6-8.5,2.06" fill="none" stroke="#d55ba0" stroke-miterlimit="10" stroke-width=".63"/><path d="M33.48,56.28s-1.11-3.03,1.22-6.73" fill="none" stroke="#d55ba0" stroke-miterlimit="10" stroke-width=".63"/><path d="M78.46,38.88c-5.02-7.43-13.52-12.31-23.16-12.31-15.42,0-27.93,12.51-27.93,27.93s12.51,27.93,27.93,27.93c9.6,0,18.07-4.84,23.09-12.22" fill="none" stroke="#626c87" stroke-miterlimit="10" stroke-width="1.88"/><path d="M42.75,69.73c2.82,7.65,7.59,12.7,12.54,12.7s9.57-4.88,12.4-12.31" fill="none" stroke="#626c87" stroke-miterlimit="10" stroke-width="1.88"/><path d="M67.83,39.25c-2.82-7.64-7.58-12.68-12.54-12.68s-9.71,5.04-12.53,12.66" fill="none" stroke="#626c87" stroke-miterlimit="10" stroke-width="1.88"/><path d="M67.41,39.41c2.34-.93,4.52-2.12,6.51-3.53" fill="none" stroke="#626c87" stroke-miterlimit="10" stroke-width="1.88"/><path d="M36.68,35.88c5.13,3.65,11.6,5.82,18.62,5.82,4.31,0,8.4-.82,12.11-2.29" fill="none" stroke="#626c87" stroke-miterlimit="10" stroke-width="1.88"/><path d="M67.83,69.76c-3.82-1.58-8.06-2.46-12.53-2.46-7.02,0-13.49,2.17-18.62,5.82" fill="none" stroke="#626c87" stroke-miterlimit="10" stroke-width="1.88"/><path d="M73.92,73.12c-1.87-1.33-3.91-2.46-6.09-3.36" fill="none" stroke="#626c87" stroke-miterlimit="10" stroke-width="1.88"/><line x1="55.3" y1="26.57" x2="55.3" y2="82.43" fill="none" stroke="#626c87" stroke-miterlimit="10" stroke-width="1.88"/><circle cx="66.73" cy="50.08" r="1.62" fill="none" stroke="#626c87" stroke-linecap="round" stroke-linejoin="round"/><path d="M66.42,58.77c1.36.47,2.85.52,4.25.09l7.04,8.15,3.93.29-.03-3.95-2.04-.15.17-2.35-2.35-.17.17-2.35-2.65-3.07c1.04-2.15.94-4.77-.5-6.89-2.14-3.16-6.44-3.98-9.6-1.83-1.11.75-1.93,1.77-2.43,2.91" fill="none" fill-rule="evenodd" stroke="#626c87" stroke-linecap="round" stroke-linejoin="round"/><circle cx="54.5" cy="54.5" r="45.71" fill="none" stroke="url(#Namnlös_övertoning_3)" stroke-linecap="round" stroke-linejoin="round" stroke-width="1.21"/></svg>