<?xml version="1.0" encoding="UTF-8"?><svg id="Layer_1" xmlns="http://www.w3.org/2000/svg" xmlns:xlink="http://www.w3.org/1999/xlink" viewBox="0 0 109 109"><defs><linearGradient id="Namnlös_övertoning_3" x1="8.18" y1="54.5" x2="100.82" y2="54.5" gradientUnits="userSpaceOnUse"><stop offset=".1" stop-color="#d15b9b" stop-opacity=".1"/><stop offset=".35" stop-color="#d15b9b" stop-opacity=".68"/><stop offset="1" stop-color="#d15b9b" stop-opacity=".02"/></linearGradient></defs><circle cx="54.5" cy="54.5" r="45.71" fill="none" stroke="url(#Namnlös_övertoning_3)" stroke-linecap="round" stroke-linejoin="round" stroke-width="1.21"/><path d="M59.62,31.56c0-3.57-2.89-6.46-6.46-6.46s-6.46,2.89-6.46,6.46c0,3.23,2.36,5.9,5.45,6.39v-4.52h-1.64v-1.87h1.64v-1.42c0-1.62.97-2.52,2.44-2.52.71,0,1.45.13,1.45.13v1.59h-.82c-.8,0-1.05.5-1.05,1.01v1.21h1.79l-.29,1.87h-1.51v4.52c3.09-.48,5.45-3.16,5.45-6.39" fill="#1877f2"/><path d="M63.57,35.48c2.97.99,4.81,2.36,4.81,3.87,0,3.02-7.35,5.47-16.42,5.47s-16.42-2.45-16.42-5.47c0-1.99,3.2-3.74,7.98-4.7" fill="none" stroke="#636d87" stroke-linecap="round" stroke-linejoin="round" stroke-width="2.18"/><path d="M59.62,56.97c-2.28.4-4.88.62-7.65.62-9.12,0-16.42-2.44-16.42-5.47" fill="none" stroke="#636d87" stroke-linecap="round" stroke-linejoin="round" stroke-width="2.18"/><path d="M68.38,48.72v-9.37" fill="none" stroke="#636d87" stroke-linecap="round" stroke-linejoin="round" stroke-width="2.18"/><path d="M35.54,39.35v25.54c0,3.03,7.3,5.47,16.42,5.47,4.22,0,8.05-.52,10.94-1.38" fill="none" stroke="#636d87" stroke-linecap="round" stroke-linejoin="round" stroke-width="2.18"/><polyline points="65.86 58.93 67.89 58.93 84.2 58.93" fill="none" stroke="#d35b9c" stroke-linecap="round" stroke-miterlimit="10" stroke-width="2.18"/><path d="M82.16,58.93v14.27c0,1.13-.91,2.04-2.04,2.04h-10.19c-1.13,0-2.04-.91-2.04-2.04v-14.27M70.95,58.93v-2.04c0-1.13.91-2.04,2.04-2.04h4.08c1.13,0,2.04.91,2.04,2.04v2.04" fill="none" stroke="#d35b9c" stroke-linecap="round" stroke-miterlimit="10" stroke-width="2.18"/><line x1="72.99" y1="64.03" x2="72.99" y2="70.14" fill="none" stroke="#d35b9c" stroke-linecap="round" stroke-miterlimit="10" stroke-width="2.18"/><line x1="77.07" y1="64.03" x2="77.07" y2="70.14" fill="none" stroke="#d35b9c" stroke-linecap="round" stroke-miterlimit="10" stroke-width="2.18"/></svg>