<?xml version="1.0" encoding="UTF-8"?><svg id="Layer_1" xmlns="http://www.w3.org/2000/svg" xmlns:xlink="http://www.w3.org/1999/xlink" viewBox="0 0 109 109"><defs><linearGradient id="Namnlös_övertoning_3" x1="7.22" y1="54.5" x2="99.86" y2="54.5" gradientUnits="userSpaceOnUse"><stop offset=".1" stop-color="#d15b9b" stop-opacity=".1"/><stop offset=".35" stop-color="#d15b9b" stop-opacity=".68"/><stop offset="1" stop-color="#d15b9b" stop-opacity=".02"/></linearGradient></defs><g id="Page-1"><g id="logo-bankid"><g id="logo1-default"><path id="Shape" d="M46.98,55.23l1.47-9.37h-1.6c-.73,0-1.7-.4-2-1.17-.1-.27-.3-1.17.93-2.03.43-.3.73-.63.77-.9.07-.27,0-.5-.2-.7-.23-.23-.77-.4-1.43-.4-1.13,0-1.93.67-2,1.13-.07.37.23.63.47.8.7.53.87,1.3.43,2.03-.47.73-1.43,1.23-2.47,1.23h-1.63c-.13.9-2.33,14.9-2.5,16h8.8c.03-.47.43-3.13.97-6.63Z" fill="#183e4f"/><path d="M58.74,37.67h-8.93l-1.2,7.57h1.53c.83,0,1.63-.37,1.97-.93.1-.17.17-.33.17-.47,0-.3-.2-.57-.43-.7-.6-.43-.7-.9-.7-1.23v-.17c.13-.8,1.2-1.67,2.63-1.67.87,0,1.5.2,1.9.57.33.33.5.8.4,1.27-.13.57-.7,1.03-1.03,1.27-.87.6-.77,1.13-.7,1.3.17.47.87.77,1.4.77h2.33c3.17.03,4.87,1.47,4.3,4.87-.5,3.13-2.9,4.5-5.77,4.53l-1.2,7.23h1.67c7.1,0,12.86-4.57,14.03-11.73,1.43-8.9-4.23-12.47-12.37-12.47Z" fill="#183e4f"/><g id="Group"><path d="M36.71,65.1h3.6c1.53,0,1.9.77,1.8,1.5-.1.57-.47,1-1.17,1.27.87.33,1.2.83,1.07,1.63-.17,1-1.03,1.73-2.17,1.73h-4.1l.97-6.13ZM39.08,67.66c.7,0,1.03-.37,1.1-.8.07-.47-.13-.8-.83-.8h-.63l-.27,1.6h.63ZM38.68,70.33c.73,0,1.13-.3,1.23-.9.07-.5-.2-.83-.9-.83h-.7l-.27,1.73h.63Z" fill="#183e4f"/><path d="M47.01,71.3c-.93.07-1.4-.03-1.6-.43-.5.3-1.03.47-1.63.47-1.07,0-1.43-.53-1.33-1.17.03-.3.2-.57.5-.8.57-.5,2.03-.57,2.6-.97.03-.43-.13-.6-.67-.6-.63,0-1.13.2-2.03.8l.2-1.4c.77-.57,1.5-.8,2.37-.8,1.1,0,2.07.43,1.87,1.63l-.2,1.37c-.07.47-.07.63.47.63l-.53,1.27ZM45.41,69.2c-.5.3-1.43.27-1.53.9-.03.3.13.53.43.53s.67-.13.93-.33c-.03-.1,0-.23.03-.43l.13-.67Z" fill="#183e4f"/><path d="M48.78,66.5h1.87l-.1.63c.6-.5,1.03-.7,1.63-.7,1.03,0,1.53.63,1.37,1.7l-.5,3.13h-1.87l.4-2.6c.07-.47-.07-.7-.43-.7-.3,0-.57.17-.83.5l-.43,2.77h-1.87l.77-4.73Z" fill="#183e4f"/><polygon points="55.01 65.1 56.88 65.1 56.41 68.13 58.21 66.5 60.51 66.5 58.21 68.53 60.04 71.26 57.68 71.26 56.24 69.06 56.21 69.06 55.88 71.26 54.01 71.26 55.01 65.1" fill="#183e4f"/><path d="M36.71,65.1h3.6c1.53,0,1.9.77,1.8,1.5-.1.57-.47,1-1.17,1.27.87.33,1.2.83,1.07,1.63-.17,1-1.03,1.73-2.17,1.73h-4.1l.97-6.13ZM39.08,67.66c.7,0,1.03-.37,1.1-.8.07-.47-.13-.8-.83-.8h-.63l-.27,1.6h.63ZM38.68,70.33c.73,0,1.13-.3,1.23-.9.07-.5-.2-.83-.9-.83h-.7l-.27,1.73h.63Z" fill="#183e4f"/><path d="M47.01,71.3c-.93.07-1.4-.03-1.6-.43-.5.3-1.03.47-1.63.47-1.07,0-1.43-.53-1.33-1.17.03-.3.2-.57.5-.8.57-.5,2.03-.57,2.6-.97.03-.43-.13-.6-.67-.6-.63,0-1.13.2-2.03.8l.2-1.4c.77-.57,1.5-.8,2.37-.8,1.1,0,2.07.43,1.87,1.63l-.2,1.37c-.07.47-.07.63.47.63l-.53,1.27ZM45.41,69.2c-.5.3-1.43.27-1.53.9-.03.3.13.53.43.53s.67-.13.93-.33c-.03-.1,0-.23.03-.43l.13-.67Z" fill="#183e4f"/><path d="M48.78,66.5h1.87l-.1.63c.6-.5,1.03-.7,1.63-.7,1.03,0,1.53.63,1.37,1.7l-.5,3.13h-1.87l.4-2.6c.07-.47-.07-.7-.43-.7-.3,0-.57.17-.83.5l-.43,2.77h-1.87l.77-4.73Z" fill="#183e4f"/><polygon points="55.01 65.1 56.88 65.1 56.41 68.13 58.21 66.5 60.51 66.5 58.21 68.53 60.04 71.26 57.68 71.26 56.24 69.06 56.21 69.06 55.88 71.26 54.01 71.26 55.01 65.1" fill="#183e4f"/></g><polygon points="61.61 65.1 63.78 65.1 62.81 71.23 60.64 71.23 61.61 65.1" fill="#183e4f"/><path d="M64.81,65.1h3.07c2.37,0,3.07,1.73,2.83,3.17-.2,1.4-1.33,3-3.4,3h-3.43l.93-6.17ZM66.81,69.8c1.03,0,1.63-.5,1.8-1.6.13-.8-.13-1.6-1.27-1.6h-.6l-.5,3.23.57-.03Z" fill="#183e4f"/></g></g></g><circle cx="53.54" cy="54.5" r="45.71" fill="none" stroke="url(#Namnlös_övertoning_3)" stroke-linecap="round" stroke-linejoin="round" stroke-width="1.21"/></svg>