<?xml version="1.0" encoding="UTF-8"?><svg id="Layer_1" xmlns="http://www.w3.org/2000/svg" xmlns:xlink="http://www.w3.org/1999/xlink" viewBox="0 0 109 109"><defs><linearGradient id="Namnlös_övertoning_3" x1="8.18" y1="54.5" x2="100.82" y2="54.5" gradientUnits="userSpaceOnUse"><stop offset=".1" stop-color="#d15b9b" stop-opacity=".1"/><stop offset=".35" stop-color="#d15b9b" stop-opacity=".68"/><stop offset="1" stop-color="#d15b9b" stop-opacity=".02"/></linearGradient></defs><circle cx="54.5" cy="54.5" r="45.71" fill="none" stroke="url(#Namnlös_övertoning_3)" stroke-linecap="round" stroke-linejoin="round" stroke-width="1.21"/><circle cx="53.95" cy="70.41" r="1.83" fill="#626c87"/><path d="M55.79,36.66h-3.67c-.58,0-1.06-.47-1.06-1.06s.47-1.06,1.06-1.06h3.67c.58,0,1.06.47,1.06,1.06s-.47,1.06-1.06,1.06Z" fill="#626c87"/><path d="M66.12,74.06c-.58,0-1.06-.47-1.06-1.06v-7.68c0-.58.47-1.06,1.06-1.06s1.06.47,1.06,1.06v7.68c0,.58-.47,1.06-1.06,1.06Z" fill="#626c87"/><path d="M42.89,38.06c-.58,0-1.06-.47-1.06-1.06v-3.54c0-1.85,1.51-3.36,3.36-3.36h18.63c1.85,0,3.36,1.51,3.36,3.36v3.53c0,.58-.47,1.06-1.06,1.06s-1.06-.47-1.06-1.06v-3.53c0-.69-.56-1.24-1.24-1.24h-18.63c-.69,0-1.25.56-1.25,1.24v3.54c0,.58-.47,1.06-1.06,1.06Z" fill="#626c87"/><path d="M63.82,76.37h-18.63c-1.85,0-3.36-1.51-3.36-3.36v-36.01c0-.58.47-1.06,1.06-1.06s1.06.47,1.06,1.06v36.01c0,.69.56,1.24,1.25,1.24h18.63c.69,0,1.24-.56,1.24-1.24v-2.59c0-.58.47-1.06,1.06-1.06s1.06.47,1.06,1.06v2.59c0,1.85-1.51,3.36-3.36,3.36Z" fill="#626c87"/><path d="M56.78,63.11c-.29,0-.58-.12-.78-.35-.31-.35-.37-.86-.13-1.26l2.35-3.92c-2.15-1.86-3.37-4.33-3.37-6.88,0-5.6,5.75-10.17,12.81-10.17s12.81,4.56,12.81,10.17-5.75,10.17-12.81,10.17c-1.58,0-3.12-.22-4.58-.67l-5.84,2.79c-.15.07-.3.1-.46.1ZM67.66,42.67c-5.9,0-10.69,3.61-10.69,8.05,0,2.18,1.16,4.23,3.26,5.77.44.32.57.93.28,1.4l-1.01,1.69,3.05-1.46c.25-.12.53-.14.79-.05,1.37.46,2.82.69,4.32.69,5.9,0,10.69-3.61,10.69-8.05s-4.8-8.05-10.69-8.05Z" fill="#626c87"/><line x1="63.66" y1="48.63" x2="72.22" y2="48.63" fill="none" stroke="#d35b9c" stroke-miterlimit="10"/><line x1="63.66" y1="53.23" x2="68.75" y2="53.23" fill="none" stroke="#d35b9c" stroke-miterlimit="10"/></svg>