<?xml version="1.0" encoding="UTF-8"?><svg id="Layer_1" xmlns="http://www.w3.org/2000/svg" xmlns:xlink="http://www.w3.org/1999/xlink" viewBox="0 0 109 109"><defs><linearGradient id="Namnlös_övertoning_3" x1="7.22" y1="53.16" x2="99.86" y2="53.16" gradientUnits="userSpaceOnUse"><stop offset=".1" stop-color="#d15b9b" stop-opacity=".1"/><stop offset=".35" stop-color="#d15b9b" stop-opacity=".68"/><stop offset="1" stop-color="#d15b9b" stop-opacity=".02"/></linearGradient></defs><circle cx="53.54" cy="53.16" r="45.71" fill="none" stroke="url(#Namnlös_övertoning_3)" stroke-linecap="round" stroke-linejoin="round" stroke-width="1.21"/><path d="M70.98,42.78h-4.12v-5.84c0-.57-.46-1.04-1.04-1.04h-25.79c-1.52,0-2.76,1.24-2.76,2.76v3.79c0,.57.46,1.04,1.04,1.04s1.04-.46,1.04-1.04v-3.79c0-.38.31-.68.68-.68h24.76v4.8h-17.99c-.57,0-1.04.46-1.04,1.04s.46,1.04,1.04,1.04h24.19c.38,0,.68.31.68.68v20.63c0,.38-.31.68-.68.68h-12.1c-.57,0-1.04.46-1.04,1.04s.46,1.04,1.04,1.04h12.1c1.52,0,2.76-1.24,2.76-2.76v-20.63c0-1.52-1.24-2.76-2.76-2.76Z" fill="#626c87"/><path d="M67.56,59.65c0-1.89-1.54-3.44-3.44-3.44s-3.44,1.54-3.44,3.44,1.54,3.44,3.44,3.44,3.44-1.54,3.44-3.44ZM62.76,59.65c0-.75.61-1.36,1.36-1.36s1.36.61,1.36,1.36-.61,1.36-1.36,1.36-1.36-.61-1.36-1.36Z" fill="#626c87"/><path d="M65.92,51.95h-12.22c-.65,0-1.17-.52-1.17-1.17s.52-1.17,1.17-1.17h12.22c.65,0,1.17.52,1.17,1.17s-.52,1.17-1.17,1.17Z" fill="#626c87"/><path d="M41.92,56.11h-.12s-.24.05-.24.05l-.12.02-.12.02-.23.04-.11.02-.12.02-.11.02-.11.03-.11.03-.34.08-.11.03-.11.03-.11.03-.11.03-.11.04-.11.03-.1.04-.11.04-.1.04-.1.04-.1.04-.1.04-.1.04-.1.04-.1.04-.1.04-.09.04s0,0-.01,0h0s0,0-.01,0l-.09.04-.1.04-.1.05-.09.05-.19.09-.09.05-.09.05-.18.1-.09.05-.18.1-.09.05-.09.05-.09.05-.09.06-.08.05-.16.12-.08.06-.08.06-.08.06-.08.06-.08.06-.08.06-.22.18-.15.13-.07.06-.07.07-.14.13-.07.07-.07.07-.13.13-.06.07-.06.07-.06.07-.12.14-.06.07-.06.07-.11.14-.06.07-.05.07-.1.15-.05.07-.05.07-.05.07-.05.07-.09.15-.04.07-.04.07-.04.08-.08.15-.04.08-.04.07-.04.08-.04.08-.03.08-.03.07-.03.08-.03.08-.03.08-.03.08-.03.08-.05.16-.02.08-.02.08-.02.08-.02.08-.02.08-.02.08-.02.08v.08s-.03.08-.03.08l-.03.23v.08s-.02.08-.02.08v.08s-.01.08-.01.08v.08s0,.08,0,.08v.08s0,.16,0,.16v.08s0,.08,0,.08v.08s0,.08,0,.08l.02.24v.08s.02.08.02.08v.08s.03.08.03.08v.08s.03.08.03.08l.02.08.04.16.02.08.07.23.02.08.05.15.03.07.09.22.1.22.07.15.04.07.04.07.04.07.04.07.04.07.04.07.09.14.05.07.05.07.1.13.05.07.05.07.05.06.05.07.05.07.06.06.06.07.06.06.06.06.06.06.06.06.06.06.06.06.13.12.2.17.06.05s0,0,0,0h.01s.06.06.06.06l.07.06.07.05.07.06.07.05.07.05.15.11.08.05.16.1.16.1.08.05.08.05.07.04s0,0,0,0h0s0,0,0,0l.07.04.09.05.09.04.09.04.09.04.09.04.09.04.09.04.09.04.09.04.09.04.09.04.09.04.1.04.3.11.1.04.1.03.1.04.1.03.1.03.11.03.1.03.11.03.11.03.11.03.22.06.11.03.11.03.11.02.23.05.23.04.12.02.12.02.12.02.12.02.12.02.12.02h.12s.12.03.12.03h.12s.12.03.12.03h.12s.13.02.13.02v-2.86c-.23-.03-.45-.06-.66-.1-.21-.04-.42-.08-.62-.13s-.4-.1-.59-.16-.37-.12-.55-.18c-.18-.07-.35-.14-.51-.21s-.32-.15-.47-.23c-.15-.08-.29-.16-.43-.25-.14-.09-.26-.18-.39-.27-.12-.09-.23-.18-.33-.27h-.01s-.01-.02-.01-.02c-.1-.09-.2-.19-.29-.28-.09-.1-.18-.2-.26-.31-.08-.1-.15-.21-.21-.32-.12-.21-.22-.43-.28-.65-.03-.11-.05-.22-.07-.33t0,0c-.01-.11-.02-.22-.02-.33,0-.12.01-.23.03-.35.02-.12.04-.23.08-.35.04-.12.08-.23.13-.35s.11-.23.18-.35c.07-.12.15-.23.23-.35.09-.11.18-.23.28-.34.1-.11.2-.22.32-.33.11-.11.23-.21.36-.32.13-.1.26-.21.4-.31.14-.1.28-.19.44-.28.15-.09.31-.18.47-.27.16-.09.33-.17.5-.24.17-.08.35-.15.53-.22s.37-.13.56-.19c.19-.06.39-.11.59-.16.2-.05.41-.09.62-.13v-2.86ZM47.17,56.11v2.86c.21.04.43.09.66.16.22.07.45.15.66.24.21.09.42.18.6.28.18.1.34.19.47.28l-1.91,1.43,6.67.95v-5.72l-2.15,1.43-.06-.04-.06-.04-.06-.04-.06-.04-.06-.04-.06-.04-.06-.04-.06-.04-.06-.04-.07-.04-.06-.04-.07-.04-.06-.04-.07-.04-.07-.04-.07-.04-.13-.07-.07-.04-.14-.07-.07-.04-.07-.03-.07-.04-.07-.04-.07-.03-.07-.04-.07-.03-.07-.03-.23-.09-.08-.03-.08-.03-.08-.03-.08-.03-.08-.03-.16-.06-.08-.03-.08-.03-.09-.03-.08-.03-.08-.02-.09-.03-.09-.02-.18-.04-.09-.02-.18-.04-.09-.02-.09-.02-.09-.02-.09-.02-.09-.02-.09-.02-.19-.03-.1-.02h-.1s-.1-.03-.1-.03h-.1s-.1-.03-.1-.03Z" fill="#b4b4b4" fill-rule="evenodd"/><path d="M46.22,50.86l-3.34,1.91v15.64s0,2,0,2l3.34-1.43v-18.12Z" fill="#f79419" fill-rule="evenodd"/></svg>