<?xml version="1.0" encoding="UTF-8"?><svg id="Layer_1" xmlns="http://www.w3.org/2000/svg" xmlns:xlink="http://www.w3.org/1999/xlink" viewBox="0 0 109 109"><defs><linearGradient id="Namnlös_övertoning_3" x1="8.18" y1="54.5" x2="100.82" y2="54.5" gradientUnits="userSpaceOnUse"><stop offset=".1" stop-color="#d15b9b" stop-opacity=".1"/><stop offset=".35" stop-color="#d15b9b" stop-opacity=".68"/><stop offset="1" stop-color="#d15b9b" stop-opacity=".02"/></linearGradient></defs><path d="M32,53.35c-.96.29-1.44.53-2.27,1.11l-17.28,12.12" fill="none" stroke="#636d87" stroke-linecap="round" stroke-linejoin="round" stroke-width="1.7"/><path d="M14.01,78.68c7.05,3.24,16.82-.4,17.78-7.07l6.66-4.67c.81-.57,1-1.68.44-2.49l-1.57-2.24c-.57-.81-1.68-1-2.49-.44l-8.14,5.71" fill="none" stroke="#636d87" stroke-linecap="round" stroke-linejoin="round" stroke-width="1.7"/><path d="M8.79,54.5c0-25.25,20.47-45.71,45.71-45.71s45.71,20.47,45.71,45.71-20.47,45.71-45.71,45.71c-10.5,0-20.18-3.54-27.89-9.49" fill="none" stroke="url(#Namnlös_övertoning_3)" stroke-linecap="round" stroke-linejoin="round" stroke-width="1.21"/><path d="M42.77,68.79h34.42c3.43,0,6.21-2.78,6.21-6.21v-15.82c0-3.43-2.78-6.21-6.21-6.21h-36.17c-3.43,0-6.21,2.78-6.21,6.21v10.95" fill="none" stroke="#626c87" stroke-linecap="round" stroke-linejoin="round" stroke-width="1.95"/><line x1="34.8" y1="46.76" x2="83.4" y2="46.76" fill="none" stroke="#646e85" stroke-linecap="round" stroke-linejoin="round" stroke-width="1.09"/><circle cx="74.68" cy="60.65" r="2.76" fill="#d35b9c"/></svg>