<?xml version="1.0" encoding="UTF-8"?><svg id="Layer_1" xmlns="http://www.w3.org/2000/svg" xmlns:xlink="http://www.w3.org/1999/xlink" viewBox="0 0 109 109"><defs><linearGradient id="Namnlös_övertoning_3" x1="6.49" y1="62.59" x2="30.18" y2="71.22" gradientUnits="userSpaceOnUse"><stop offset=".1" stop-color="#d15b9b" stop-opacity=".1"/><stop offset=".35" stop-color="#d15b9b" stop-opacity=".68"/><stop offset="1" stop-color="#d15b9b" stop-opacity=".02"/></linearGradient><linearGradient id="Namnlös_övertoning_3-2" x1="86.18" y1="67.99" x2="93.62" y2="70.7" xlink:href="#Namnlös_övertoning_3"/><linearGradient id="Namnlös_övertoning_3-3" x1="27.12" y1="9" x2="85.75" y2="30.34" xlink:href="#Namnlös_övertoning_3"/></defs><rect x="62.04" y="58.23" width="16.9" height="10.33" rx="1.88" ry="1.88" fill="none" stroke="#636d87" stroke-linecap="round" stroke-linejoin="round" stroke-width="2.18"/><path d="M65.8,58.23v-3.75c0-2.59,2.1-4.69,4.69-4.69s4.69,2.1,4.69,4.69v3.75" fill="none" stroke="#636d87" stroke-linecap="round" stroke-linejoin="round" stroke-width="2.18"/><circle cx="53.87" cy="38.14" r="10.16" fill="none" stroke="#d35b9c" stroke-linecap="round" stroke-miterlimit="10" stroke-width="2.18"/><path d="M35.76,69.2c0-9.01,8.11-16.31,18.11-16.31,2.08,0,4.08.32,5.94.9" fill="none" stroke="#d35b9c" stroke-linecap="round" stroke-miterlimit="10" stroke-width="2.18"/><rect x="14" y="35.94" width="6.55" height="4" rx=".73" ry=".73" fill="none" stroke="#646e85" stroke-linecap="round" stroke-linejoin="round"/><path d="M15.46,35.94v-1.46c0-1,.81-1.82,1.82-1.82s1.82.81,1.82,1.82v1.46" fill="none" stroke="#646e85" stroke-linecap="round" stroke-linejoin="round"/><path d="M17.25,28.15c-.64.95-2.47,2.88-6.99,2.78l.03,7.77c.02.14.56,3.75,7.03,7.22,6.45-3.52,6.96-7.13,6.98-7.29l-.03-7.76c-4.51.13-6.37-1.78-7.02-2.73Z" fill="none" stroke="#646e85" stroke-linecap="round" stroke-linejoin="round"/><path d="M44.24,86.19c0-1.51,1.22-2.73,2.73-2.73h10.91c1.51,0,2.73,1.22,2.73,2.73v1.82c0,1.51-1.22,2.73-2.73,2.73h-10.91c-1.51,0-2.73-1.22-2.73-2.73v-1.82Z" fill="none" stroke="#626c87" stroke-linecap="round" stroke-linejoin="round"/><path d="M52.43,98.01h-5.46c-1.51,0-2.73-1.22-2.73-2.73v-1.82c0-1.51,1.22-2.73,2.73-2.73h9.55" fill="none" stroke="#626c87" stroke-linecap="round" stroke-linejoin="round"/><circle cx="47.88" cy="87.51" r="1.01" fill="#626c87"/><circle cx="47.88" cy="94.55" r="1.01" fill="#626c87"/><path d="M55.38,96.31l4.14,1.72c.13.05.27.05.4,0l4.14-1.72c.26-.11.39-.41.28-.68-.05-.13-.15-.22-.28-.28l-4.14-1.72c-.13-.05-.27-.05-.4,0l-4.14,1.72c-.26.11-.39.41-.28.68.05.13.15.22.28.28Z" fill="none" stroke="#646e85" stroke-linecap="round" stroke-linejoin="round"/><path d="M54.97,97.59l4.53,1.89c.14.06.3.06.44,0l4.53-1.89" fill="none" stroke="#646e85" stroke-linecap="round" stroke-linejoin="round"/><path d="M54.97,99.04l4.53,1.89c.14.06.3.06.44,0l4.53-1.89" fill="none" stroke="#646e85" stroke-linecap="round" stroke-linejoin="round"/><path d="M96.83,36.9l1.92-1.92-1.36-1.36c-.77.49-1.8.4-2.48-.27s-.76-1.7-.27-2.48l-1.36-1.36-9.37,9.37c-.3.3-.3.79,0,1.09l4.39,4.39c.3.3.79.3,1.09,0l8.34-8.34" fill="none" stroke="#626c87" stroke-linecap="round" stroke-linejoin="round"/><circle cx="92.24" cy="33.84" r=".35" fill="#626c87"/><circle cx="93.29" cy="34.89" r=".35" fill="#626c87"/><circle cx="94.33" cy="35.94" r=".35" fill="#626c87"/><path d="M25.33,82.78c-8.6-7.86-13.99-19.17-13.99-31.74" fill="none" stroke="url(#Namnlös_övertoning_3)" stroke-linecap="round" stroke-linejoin="round" stroke-width="1.21"/><path d="M97.32,52.89c-.56,13.11-6.99,24.71-16.73,32.22" fill="none" stroke="url(#Namnlös_övertoning_3-2)" stroke-linecap="round" stroke-linejoin="round" stroke-width="1.21"/><path d="M23.3,21.27c7.83-8.16,18.84-13.25,31.05-13.25,13.36,0,25.3,6.09,33.19,15.65" fill="none" stroke="url(#Namnlös_övertoning_3-3)" stroke-linecap="round" stroke-linejoin="round" stroke-width="1.21"/></svg>