<?xml version="1.0" encoding="UTF-8"?><svg id="Layer_1" xmlns="http://www.w3.org/2000/svg" xmlns:xlink="http://www.w3.org/1999/xlink" viewBox="0 0 109 109"><defs><linearGradient id="Namnlös_övertoning_3" x1="8.18" y1="54.5" x2="100.82" y2="54.5" gradientUnits="userSpaceOnUse"><stop offset=".1" stop-color="#d15b9b" stop-opacity=".1"/><stop offset=".35" stop-color="#d15b9b" stop-opacity=".68"/><stop offset="1" stop-color="#d15b9b" stop-opacity=".02"/></linearGradient></defs><circle cx="54.5" cy="54.5" r="45.71" fill="none" stroke="url(#Namnlös_övertoning_3)" stroke-linecap="round" stroke-linejoin="round" stroke-width="1.21"/><path d="M54.47,66.61c-1.2,0-2.03-.87-2.03-2.13,0-1.2.83-2.13,2.03-2.13s2.1.93,2.1,2.13c0,1.27-.9,2.13-2.1,2.13ZM54.43,44.02c.9,0,1.9.2,1.93,1.13,0,.33-.03.8-.1,1.3-.23,2.57-.9,8.56-1.17,12.53h-1.3c-.3-3.96-.9-9.79-1.17-12.49-.03-.43-.1-1.03-.1-1.37,0-.87.97-1.1,1.9-1.1Z" fill="#d35b9c"/><path d="M58.78,35.52c-2.35-4.07-6.2-4.07-8.56,0l-16.14,27.96c-2.35,4.07-.43,7.41,4.28,7.41h32.28c4.71,0,6.63-3.33,4.28-7.41l-16.14-27.96Z" fill="none" stroke="#636d87" stroke-linecap="round" stroke-linejoin="round" stroke-width="2.18"/></svg>