<?xml version="1.0" encoding="UTF-8"?><svg id="Layer_1" xmlns="http://www.w3.org/2000/svg" xmlns:xlink="http://www.w3.org/1999/xlink" viewBox="0 0 109 109"><defs><linearGradient id="Namnlös_övertoning_3" x1="8.18" y1="54.5" x2="100.82" y2="54.5" gradientUnits="userSpaceOnUse"><stop offset=".1" stop-color="#d15b9b" stop-opacity=".1"/><stop offset=".35" stop-color="#d15b9b" stop-opacity=".68"/><stop offset="1" stop-color="#d15b9b" stop-opacity=".02"/></linearGradient></defs><circle cx="54.5" cy="54.5" r="45.71" fill="none" stroke="url(#Namnlös_övertoning_3)" stroke-linecap="round" stroke-linejoin="round" stroke-width="1.21"/><path d="M54.5,73.69c-3.1,0-6.18-.76-8.99-2.26-4.52-2.41-7.83-6.43-9.33-11.33-1.49-4.9-.99-10.09,1.42-14.61,2.41-4.52,6.43-7.83,11.33-9.33,4.87-1.48,10.03-1,14.53,1.38.65.34.9,1.15.56,1.8-.34.65-1.15.9-1.8.56-3.88-2.04-8.32-2.47-12.52-1.19-4.22,1.29-7.69,4.14-9.76,8.03-2.07,3.89-2.51,8.36-1.22,12.58,2.66,8.71,11.9,13.64,20.61,10.98,3.26-.99,6.09-2.93,8.18-5.6,2.04-2.61,3.25-5.74,3.48-9.03.05-.73.68-1.29,1.42-1.23.73.05,1.29.69,1.23,1.42-.27,3.83-1.67,7.46-4.04,10.49-2.43,3.11-5.71,5.36-9.5,6.51-1.85.56-3.74.84-5.62.84Z" fill="#626c87"/><path d="M63.58,58.36h-9.86c-.74,0-1.33-.6-1.33-1.33v-11.44c0-.74.6-1.33,1.33-1.33s1.33.6,1.33,1.33v10.11h8.52c.74,0,1.33.6,1.33,1.33s-.6,1.33-1.33,1.33Z" fill="#d35b9c"/></svg>