<?xml version="1.0" encoding="UTF-8"?><svg id="Layer_1" xmlns="http://www.w3.org/2000/svg" xmlns:xlink="http://www.w3.org/1999/xlink" viewBox="0 0 109 109"><defs><linearGradient id="Namnlös_övertoning_3" x1="8.18" y1="54.5" x2="100.82" y2="54.5" gradientUnits="userSpaceOnUse"><stop offset=".1" stop-color="#d15b9b" stop-opacity=".1"/><stop offset=".35" stop-color="#d15b9b" stop-opacity=".68"/><stop offset="1" stop-color="#d15b9b" stop-opacity=".02"/></linearGradient></defs><circle cx="54.5" cy="54.5" r="45.71" fill="none" stroke="url(#Namnlös_övertoning_3)" stroke-linecap="round" stroke-linejoin="round" stroke-width="1.21"/><path d="M38.95,54.37c0-3.13-.03-6.24,0-9.37.05-4.52,3.43-7.92,7.98-7.95,6.34-.03,12.66-.03,19,0,4.55.03,7.92,3.43,7.95,7.95.03,6.34.03,12.66,0,19-.03,4.52-3.4,7.92-7.95,7.95-6.34.03-12.66.03-19,0-4.55-.03-7.92-3.43-7.95-7.95-.05-3.21-.03-6.42-.03-9.64ZM72.68,54.61c0-3,.03-5.97,0-8.97-.03-4.31-2.97-7.36-7.28-7.41-5.97-.05-11.94-.05-17.91,0-4.34.05-7.31,3.08-7.31,7.41-.03,5.89-.03,11.78,0,17.66.03,4.42,2.97,7.44,7.36,7.47,5.92.05,11.86.05,17.8,0,4.39-.03,7.33-3.05,7.36-7.47-.03-2.92-.03-5.81-.03-8.7Z" fill="#2c313c"/><path d="M56.59,65.23h-.67c-3.4.21-3.05-.88-3-3.4.03-.96.59-1.47,1.55-1.5.99-.03,1.95,0,2.94-.03,3.51-.11,6.1-2.57,6.13-5.78.03-3.24-2.54-5.7-6.08-5.81-.99-.03-1.95.03-2.94-.03-.99-.05-1.55-.59-1.61-1.61-.03-.62-.03-1.26,0-1.87.05-.88.56-1.45,1.45-1.45,1.69,0,3.43-.13,5.06.13,5.62.94,9.42,5.92,8.97,11.51-.43,5.49-5.09,9.72-10.73,9.82h-1.07Z" fill="#2c313c"/><path d="M50.44,58.25c0,1.66.03,3.29,0,4.95-.03,1.5-.51,1.95-2.03,2.01-3.19.08-3.35-.08-3.35-3.24,0-2.94-.03-5.89,0-8.83,0-1.69.46-2.09,2.17-2.11h1.34c1.34.05,1.85.51,1.85,1.87.05,1.79.03,3.59.03,5.35Z" fill="#2c313c"/><path d="M47.65,43.77c2.33,0,2.68.29,2.68,2.41,0,2.25-.32,2.54-2.68,2.54s-2.62-.37-2.62-2.49c-.03-2.09.37-2.46,2.62-2.46Z" fill="#2c313c"/></svg>