<?xml version="1.0" encoding="UTF-8"?><svg id="Layer_1" xmlns="http://www.w3.org/2000/svg" xmlns:xlink="http://www.w3.org/1999/xlink" viewBox="0 0 109 109"><defs><linearGradient id="Namnlös_övertoning_3" x1="8.18" y1="54.5" x2="100.82" y2="54.5" gradientUnits="userSpaceOnUse"><stop offset=".1" stop-color="#d15b9b" stop-opacity=".1"/><stop offset=".35" stop-color="#d15b9b" stop-opacity=".68"/><stop offset="1" stop-color="#d15b9b" stop-opacity=".02"/></linearGradient></defs><circle cx="54.5" cy="54.5" r="45.71" fill="none" stroke="url(#Namnlös_övertoning_3)" stroke-linecap="round" stroke-linejoin="round" stroke-width="1.21"/><path d="M49.48,50.02c4.84,0,8.76-3.92,8.76-8.76s-3.92-8.76-8.76-8.76-8.76,3.92-8.76,8.76,3.92,8.76,8.76,8.76Z" fill="none" stroke="#626c87" stroke-miterlimit="10" stroke-width="1.83"/><path d="M74.12,49.59c0-1.22-.32-2.42-.94-3.47-.62-1.05-1.51-1.92-2.57-2.51-1.07-.59-2.27-.89-3.49-.85-1.22.03-2.41.4-3.44,1.05-1.03.65-1.87,1.57-2.43,2.65-.56,1.09-.81,2.3-.74,3.52.07,1.22.47,2.39,1.15,3.41.68,1.01,1.62,1.82,2.73,2.34v10.42l2.92,2.92,4.87-4.87-2.92-2.92,2.92-2.92-2.41-2.41c1.28-.49,2.38-1.37,3.16-2.5.78-1.13,1.2-2.47,1.2-3.85ZM67.31,49.59c-.39,0-.76-.11-1.08-.33-.32-.21-.57-.52-.72-.87-.15-.36-.19-.75-.11-1.12.08-.38.26-.72.53-1s.62-.46,1-.53c.38-.08.77-.04,1.12.11.36.15.66.4.87.72s.33.7.33,1.08c0,.52-.21,1.01-.57,1.38s-.86.57-1.38.57Z" fill="none" stroke="#d35b9c" stroke-linecap="round" stroke-miterlimit="10" stroke-width="2.18"/><path d="M57.15,53.95c-1.49-.67-3.11-1.01-4.75-1.01h-5.84c-3.1,0-6.07,1.23-8.26,3.42-2.19,2.19-3.42,5.16-3.42,8.26v3.89h25.31v-10.73c-1.31-1.01-2.36-2.33-3.04-3.84h0Z" fill="none" stroke="#626c87" stroke-miterlimit="10" stroke-width="1.83"/></svg>