<?xml version="1.0" encoding="UTF-8"?><svg id="Layer_1" xmlns="http://www.w3.org/2000/svg" xmlns:xlink="http://www.w3.org/1999/xlink" viewBox="0 0 109 109"><defs><linearGradient id="Namnlös_övertoning_3" x1="8.18" y1="54.5" x2="100.82" y2="54.5" gradientUnits="userSpaceOnUse"><stop offset=".1" stop-color="#d15b9b" stop-opacity=".1"/><stop offset=".35" stop-color="#d15b9b" stop-opacity=".68"/><stop offset="1" stop-color="#d15b9b" stop-opacity=".02"/></linearGradient></defs><circle cx="54.5" cy="54.5" r="45.71" fill="none" stroke="url(#Namnlös_övertoning_3)" stroke-linecap="round" stroke-linejoin="round" stroke-width="1.21"/><path d="M54.77,59.72c-1.15-.41-3.15-1.87-3.15-3.62,0-1.18.72-2.15,2.71-3.74,1.71-1.34,2.59-2.25,2.59-3.4s-.75-2.09-2.12-2.09c-2.06,0-3.27,1.93-3.68,1.93-.47,0-1.34-.72-1.34-1.47,0-.44.16-.75.59-1.15,1-.84,2.4-1.12,3.37-1.12,2.84,0,4.96,2.46,4.96,4.9,0,1.31-.44,2.43-2.21,3.9-1.56,1.31-2.4,1.9-2.4,2.93,0,.84.44,1.4,1.28,2.18l-.59.75ZM53.99,66.2c-1.12,0-1.93-.81-1.93-2,0-1.12.78-2,1.93-2,1.09,0,1.93.87,1.93,2,0,1.18-.84,2-1.93,2Z" fill="#d35b9c"/><path d="M58.06,35.52c-2.35-4.07-6.2-4.07-8.56,0l-16.14,27.96c-2.35,4.07-.43,7.41,4.28,7.41h32.28c4.71,0,6.63-3.33,4.28-7.41l-16.14-27.96Z" fill="none" stroke="#636d87" stroke-linecap="round" stroke-linejoin="round" stroke-width="2.18"/></svg>