<?xml version="1.0" encoding="UTF-8"?><svg id="Layer_1" xmlns="http://www.w3.org/2000/svg" xmlns:xlink="http://www.w3.org/1999/xlink" viewBox="0 0 109 109"><defs><linearGradient id="Namnlös_övertoning_3" x1="8.18" y1="54.5" x2="100.82" y2="54.5" gradientUnits="userSpaceOnUse"><stop offset=".1" stop-color="#d15b9b" stop-opacity=".1"/><stop offset=".35" stop-color="#d15b9b" stop-opacity=".68"/><stop offset="1" stop-color="#d15b9b" stop-opacity=".02"/></linearGradient></defs><circle cx="49.99" cy="67.19" r="1.59" fill="#d35b9c"/><line x1="48.4" y1="36.94" x2="51.59" y2="36.94" fill="none" stroke="#d35b9c" stroke-miterlimit="10"/><line x1="60.57" y1="60.42" x2="60.57" y2="69.44" fill="none" stroke="#d35b9c" stroke-linecap="round" stroke-miterlimit="10" stroke-width="2.18"/><line x1="60.57" y1="58.57" x2="60.57" y2="60.35" fill="none" stroke="#d35b9c" stroke-linecap="round" stroke-miterlimit="10" stroke-width="2.18"/><path d="M40.38,38.16v-3.07c0-1.1.9-2,2-2h16.18c1.1,0,2,.9,2,2v7.35" fill="none" stroke="#d35b9c" stroke-linecap="round" stroke-miterlimit="10" stroke-width="2.18"/><path d="M60.57,67.19v2.25c0,1.1-.9,2-2,2h-16.18c-1.1,0-2-.9-2-2v-31.29" fill="none" stroke="#d35b9c" stroke-linecap="round" stroke-miterlimit="10" stroke-width="2.18"/><line x1="68.62" y1="64.89" x2="68.62" y2="73.91" fill="none" stroke="#626c87" stroke-linecap="round" stroke-linejoin="round" stroke-width="1.95"/><path d="M63.36,37.55h3.26c1.1,0,2,.9,2,2v25.27" fill="none" stroke="#626c87" stroke-linecap="round" stroke-linejoin="round" stroke-width="1.95"/><path d="M68.62,71.66v2.25c0,1.1-.9,2-2,2h-16.18c-1.1,0-2-.9-2-2" fill="none" stroke="#626c87" stroke-linecap="round" stroke-linejoin="round" stroke-width="1.95"/><path d="M49.29,58.7c.08-3.4,1.91-6.67,5.09-8.44,2.57-1.43,5.51-1.59,8.09-.69" fill="none" stroke="#626c87" stroke-linecap="round" stroke-linejoin="round" stroke-width="1.04"/><polygon points="59.87 50.42 62.18 49.46 61.21 47.16 62.6 47.72 63.57 50.03 61.26 50.99 59.87 50.42" fill="#626c87"/><circle cx="54.5" cy="54.5" r="45.71" fill="none" stroke="url(#Namnlös_övertoning_3)" stroke-linecap="round" stroke-linejoin="round" stroke-width="1.21"/></svg>