<?xml version="1.0" encoding="UTF-8"?><svg id="Lager_1" xmlns="http://www.w3.org/2000/svg" viewBox="0 0 256 256"><g><path d="M52.29,72.75v-18.95c0-4.75,3.85-8.6,8.6-8.6H189.85v34.39h25.79c4.75,0,8.6,3.85,8.6,8.6v103.17c0,4.75-3.85,8.6-8.6,8.6h-60.49" fill="none" stroke="#626c87" stroke-linecap="round" stroke-linejoin="round" stroke-width="10.38"/><line x1="189.85" y1="79.58" x2="94.7" y2="79.58" fill="none" stroke="#626c87" stroke-linecap="round" stroke-linejoin="round" stroke-width="10.38"/><circle cx="181.36" cy="158.75" r="11.99" fill="none" stroke="#626c87" stroke-linecap="round" stroke-linejoin="round" stroke-width="10.38"/></g><line x1="190.36" y1="114.42" x2="129.25" y2="114.42" fill="none" stroke="#626c87" stroke-linecap="round" stroke-linejoin="round" stroke-width="11.7"/><g><path d="M70.38,141.05l-.6,.07-1.19,.17-.59,.09-.58,.09-1.17,.2-.57,.11-.58,.11-.57,.12-.57,.13-.56,.13-1.68,.42-.55,.15-.54,.16-.55,.16-.53,.15-.54,.18-.53,.17-.52,.18-.53,.18-.52,.19-.51,.19-.52,.2-.51,.2-.5,.2-.51,.2-.49,.21-.49,.2-.43,.2s-.04,.02-.07,.02h0l-.06,.04-.43,.19-.48,.22-.48,.23-.47,.23-.95,.47-.46,.25-.47,.24-.91,.5-.45,.26-.88,.52-.44,.27-.43,.26-.43,.27-.43,.29-.42,.27-.82,.58-.4,.28-.4,.3-.4,.29-.39,.3-.38,.3-.39,.31-1.12,.92-.73,.63-.35,.32-.35,.33-.69,.65-.34,.33-.33,.33-.65,.67-.32,.34-.31,.34-.32,.34-.6,.69-.29,.35-.29,.34-.56,.71-.28,.36-.26,.34-.52,.73-.25,.36-.24,.36-.24,.37-.23,.36-.47,.74-.21,.36-.21,.37-.2,.38-.41,.74-.19,.38-.19,.37-.19,.38-.18,.39-.17,.38-.16,.37-.17,.39-.15,.39-.15,.38-.15,.39-.13,.38-.26,.78-.11,.38-.11,.4-.11,.38-.1,.4-.09,.38-.08,.4-.09,.39-.07,.39-.07,.4-.17,1.17-.06,.4-.04,.4-.04,.38-.02,.4-.03,.39v.4l-.03,.39v.8l.02,.41v.41l.03,.4,.03,.4,.11,1.2,.06,.4,.05,.39,.07,.4,.07,.39,.07,.4,.08,.38,.08,.39,.19,.78,.09,.38,.34,1.15,.12,.38,.26,.74,.14,.37,.45,1.12,.5,1.09,.35,.73,.2,.34,.2,.36,.2,.34,.2,.36,.21,.34,.2,.34,.45,.69,.23,.34,.23,.34,.48,.67,.25,.33,.26,.34,.26,.32,.27,.33,.26,.33,.28,.32,.29,.33,.29,.31,.29,.32,.3,.31,.31,.31,.3,.31,.32,.31,.63,.6,1.01,.87,.3,.25,.04,.04h0l.05,.04,.3,.24,.35,.29,.35,.27,.36,.28,.36,.27,.37,.27,.76,.54,.39,.26,.78,.5,.8,.5,.41,.24,.42,.25,.37,.2s.03,.02,.05,.03h0s.03,.02,.05,.03l.37,.21,.43,.23,.43,.22,.45,.22,.44,.22,.45,.22,.46,.22,.46,.2,.47,.2,.46,.21,.47,.2,.47,.2,.47,.2,.48,.2,1.48,.56,.51,.18,.5,.17,.51,.18,.51,.17,.52,.17,.53,.15,.52,.16,.53,.16,.54,.15,.54,.14,1.1,.28,.56,.13,.56,.14,.56,.12,1.14,.24,1.15,.22,.59,.09,.6,.1,.59,.1,.61,.09,.6,.08,.61,.09,.61,.07,.61,.07,.62,.07,.61,.07,.62,.06,.63,.07v-14.3c-1.14-.14-2.23-.32-3.32-.51-1.07-.19-2.1-.41-3.12-.65s-1.99-.5-2.94-.79-1.86-.6-2.75-.92c-.88-.33-1.73-.68-2.55-1.04s-1.6-.75-2.35-1.15c-.75-.4-1.47-.82-2.16-1.25-.68-.43-1.32-.88-1.94-1.33-.59-.45-1.14-.89-1.66-1.36l-.07-.06-.07-.07c-.51-.46-1-.93-1.44-1.42-.47-.5-.89-1.02-1.29-1.54-.4-.52-.75-1.05-1.07-1.58-.62-1.07-1.11-2.16-1.42-3.27-.16-.55-.27-1.1-.35-1.65t0-.02c-.07-.56-.11-1.12-.11-1.67,0-.58,.06-1.15,.15-1.74,.08-.58,.22-1.16,.41-1.75,.18-.59,.4-1.17,.66-1.76s.57-1.17,.91-1.75c.34-.58,.73-1.16,1.15-1.73,.43-.57,.88-1.14,1.38-1.69,.49-.57,1.02-1.12,1.59-1.66,.57-.54,1.16-1.07,1.8-1.58,.63-.52,1.29-1.03,1.99-1.53,.7-.48,1.42-.97,2.18-1.42,.75-.46,1.54-.9,2.35-1.33,.82-.43,1.66-.84,2.52-1.22,.87-.38,1.76-.74,2.67-1.09s1.85-.66,2.81-.95c.97-.29,1.96-.56,2.95-.8,1.01-.24,2.04-.45,3.08-.63v-14.3Zm26.22,0v14.3c1.04,.18,2.15,.45,3.28,.78,1.12,.34,2.23,.75,3.32,1.19,1.07,.44,2.09,.91,2.99,1.39,.91,.48,1.71,.96,2.34,1.41l-9.54,7.15,33.37,4.77v-28.61l-10.73,7.15-.29-.21-.3-.2-.3-.21-.3-.2-.31-.2-.3-.2-.31-.2-.32-.2-.31-.2-.33-.2-.31-.2-.34-.2-.32-.2-.33-.19-.34-.19-.34-.2-.67-.37-.35-.18-.69-.37-.35-.18-.35-.17-.36-.18-.35-.18-.36-.16-.37-.18-.37-.16-.37-.17-1.15-.47-.39-.15-.39-.16-.4-.14-.39-.15-.4-.15-.82-.28-.41-.13-.42-.14-.43-.13-.42-.13-.42-.12-.44-.13-.44-.12-.88-.22-.45-.11-.91-.22-.46-.1-.46-.09-.47-.1-.47-.08-.47-.09-.47-.08-.97-.17-.49-.08-.49-.07-.5-.07-.49-.07-.51-.07Z" fill="#b4b4b4" fill-rule="evenodd"/><path d="M91.84,114.83l-16.69,9.54v88.2l16.69-7.15V114.83Z" fill="#f79419" fill-rule="evenodd"/></g></svg>