<?xml version="1.0" encoding="UTF-8"?><svg id="Lager_1" xmlns="http://www.w3.org/2000/svg" viewBox="0 0 256 256"><path d="M94.96,137.46c28.94,0,52.4-23.46,52.4-52.4s-23.46-52.4-52.4-52.4-52.4,23.46-52.4,52.4,23.46,52.4,52.4,52.4Z" fill="none" stroke="#fff" stroke-linecap="round" stroke-linejoin="round" stroke-width="12.66"/><path d="M250.36,112.78c.02-6.91-1.81-13.7-5.31-19.66-3.5-5.96-8.53-10.87-14.58-14.22-6.04-3.35-12.88-5.01-19.79-4.82-6.91,.19-13.64,2.24-19.49,5.92-5.85,3.68-10.6,8.87-13.76,15.02-3.16,6.15-4.61,13.03-4.19,19.93,.41,6.9,2.67,13.56,6.54,19.29,3.87,5.73,9.2,10.31,15.45,13.28v58.98l16.54,16.54,27.56-27.56-16.54-16.54,16.54-16.54-13.67-13.67c7.26-2.8,13.5-7.73,17.91-14.15,4.41-6.41,6.77-14.01,6.78-21.79Zm-38.59,0c-2.18,0-4.31-.65-6.13-1.86-1.81-1.21-3.23-2.93-4.06-4.95-.83-2.01-1.05-4.23-.63-6.37,.43-2.14,1.48-4.1,3.02-5.64s3.51-2.59,5.64-3.02c2.14-.43,4.36-.21,6.37,.63,2.01,.83,3.74,2.25,4.95,4.06s1.86,3.94,1.86,6.13c0,2.92-1.16,5.73-3.23,7.8-2.07,2.07-4.87,3.23-7.8,3.23Z" fill="#fff"/><path d="M136.84,151.98c-8.94-3.99-18.62-6.05-28.41-6.05h-34.93c-18.53,0-36.3,7.36-49.4,20.46-13.1,13.1-20.46,30.87-20.46,49.4v23.29H155v-64.16c-7.85-6.03-14.09-13.91-18.16-22.94h0Z" fill="none" stroke="#fff" stroke-linecap="round" stroke-linejoin="round" stroke-width="12.66"/></svg>